<svg width="61" height="11" viewBox="0 0 61 11" fill="none" xmlns="http://www.w3.org/2000/svg">
<path d="M10.6953 10.8041V0.88672H16.8878V2.21292H12.2346V5.35401H16.4955V6.65306H12.2346V10.8041H10.6953ZM17.9249 1.66317C17.9249 1.18943 18.3091 0.810705 18.7842 0.810705C19.2579 0.810705 19.6434 1.18943 19.6434 1.66317C19.6434 2.13012 19.2593 2.51563 18.7842 2.51563C18.3091 2.51563 17.9249 2.13148 17.9249 1.66317ZM18.0416 3.57442H19.5267V10.8041H18.0416V3.57442ZM23.1944 1.86271V3.57442H24.5681V4.74995H23.1944V8.73535C23.1944 9.36112 23.4686 9.64211 24.074 9.64211C24.2247 9.64211 24.4663 9.62854 24.5614 9.60818V10.7837C24.3971 10.8244 24.0673 10.8529 23.736 10.8529C22.2727 10.8529 21.7013 10.2964 21.7013 8.90096V4.74995H20.6493V3.57442H21.7013V1.86271H23.1944ZM25.8143 3.57442H27.2301V4.78389H27.264C27.6563 3.95857 28.4259 3.4509 29.539 3.4509C31.134 3.4509 32.0476 4.46761 32.0476 6.12367V10.8041H30.5557V6.4128C30.5557 5.32686 30.0467 4.72959 29.0164 4.72959C27.9712 4.72959 27.2979 5.4721 27.2979 6.59198V10.8054H25.8129V3.57442H25.8143ZM39.5365 8.6797C39.3301 9.99911 38.08 10.9412 36.4239 10.9412C34.3009 10.9412 33.0154 9.50501 33.0154 7.22318C33.0154 4.95492 34.3212 3.44275 36.3628 3.44275C38.3691 3.44275 39.6206 4.85855 39.6206 7.05079V7.55982H34.514V7.64941C34.514 8.90639 35.2701 9.73849 36.4592 9.73849C37.3049 9.73849 37.9306 9.31226 38.1288 8.6797H39.5365ZM34.5194 6.52275H38.1342C38.1003 5.41645 37.3985 4.64 36.3615 4.64C35.323 4.64 34.5941 5.43002 34.5194 6.52275ZM43.4119 3.44411C45.0951 3.44411 46.1879 4.37937 46.2367 5.71237H44.8413C44.7585 5.01193 44.244 4.57213 43.4119 4.57213C42.6083 4.57213 42.0721 4.96443 42.0721 5.54133C42.0721 5.99471 42.402 6.3042 43.1852 6.48338L44.3608 6.7508C45.839 7.09423 46.4023 7.67113 46.4023 8.71635C46.4023 10.0358 45.1725 10.9425 43.4676 10.9425C41.6595 10.9425 40.5735 10.0561 40.4364 8.68106H41.9065C42.0436 9.43714 42.5595 9.80772 43.4662 9.80772C44.3594 9.80772 44.9092 9.43714 44.9092 8.8453C44.9092 8.37835 44.6417 8.10279 43.8504 7.92361L42.6748 7.64941C41.2998 7.33313 40.6197 6.67342 40.6197 5.62142C40.6224 4.33051 41.7491 3.44411 43.4119 3.44411ZM50.1257 3.44411C51.8089 3.44411 52.9017 4.37937 52.9505 5.71237H51.5551C51.4723 5.01193 50.9578 4.57213 50.1257 4.57213C49.3221 4.57213 48.786 4.96443 48.786 5.54133C48.786 5.99471 49.1158 6.3042 49.8991 6.48338L51.0746 6.7508C52.5528 7.09423 53.1161 7.67113 53.1161 8.71635C53.1161 10.0358 51.8863 10.9425 50.1814 10.9425C48.3733 10.9425 47.2874 10.0561 47.1503 8.68106H48.6204C48.7575 9.43714 49.2733 9.80772 50.18 9.80772C51.0732 9.80772 51.623 9.43714 51.623 8.8453C51.623 8.37835 51.3556 8.10279 50.5642 7.92361L49.3887 7.64941C48.0136 7.33313 47.3335 6.67342 47.3335 5.62142C47.3349 4.33051 48.4629 3.44411 50.1257 3.44411ZM58.1332 10.8136H56.7798V7.86796H53.9754V6.52818H56.7798V3.58392H58.1332V6.52818H60.9444V7.86796H58.1332V10.8136ZM5.98092 1.85592C6.35693 1.40118 6.60941 0.768624 6.54018 0.140137C5.99993 0.161856 5.34565 0.499854 4.95743 0.954592C4.60993 1.35639 4.3045 2.00117 4.38731 2.61744C4.99 2.66359 5.60627 2.31066 5.98092 1.85592ZM6.52661 2.73689C5.64157 2.67173 4.89091 3.23099 4.47283 3.23099C4.04795 3.23099 3.39231 2.75046 2.69867 2.76404C1.78648 2.77761 0.946235 3.29479 0.475209 4.11196C-0.472274 5.7558 0.233587 8.19238 1.15664 9.52673C1.60866 10.1783 2.1462 10.914 2.85342 10.8869C3.53349 10.8597 3.7914 10.4471 4.614 10.4471C5.4366 10.4471 5.66872 10.8869 6.38815 10.8747C7.12116 10.8611 7.5854 10.2095 8.03335 9.55388C8.55189 8.79779 8.765 8.06478 8.77722 8.02542C8.76093 8.01863 7.34921 7.47702 7.33563 5.85082C7.32342 4.49068 8.44601 3.83776 8.49623 3.80518C7.85824 2.86585 6.87411 2.76268 6.52661 2.73689Z" fill="black"/>
</svg>
