<svg width="15" height="44" viewBox="0 0 15 44" fill="none" xmlns="http://www.w3.org/2000/svg">
<path d="M13.5729 17.6825C13.052 18.0014 12.6205 18.4473 12.3189 18.9783C12.0172 19.5094 11.8552 20.1083 11.8481 20.719C11.8501 21.4064 12.0538 22.078 12.4338 22.6508C12.8138 23.2235 13.3535 23.6722 13.986 23.9413C13.7366 24.7459 13.3675 25.5084 12.8912 26.2031C12.2096 27.1843 11.4969 28.1654 10.4125 28.1654C9.32808 28.1654 9.04918 27.5354 7.79948 27.5354C6.58078 27.5354 6.14698 28.1861 5.15548 28.1861C4.16398 28.1861 3.47208 27.2772 2.67678 26.1618C1.62625 24.5992 1.04889 22.7667 1.01398 20.8842C1.01398 17.7858 3.02798 16.1437 5.01088 16.1437C6.06438 16.1437 6.94228 16.8356 7.60328 16.8356C8.23328 16.8356 9.21448 16.1023 10.4125 16.1023C11.0284 16.0864 11.6389 16.2222 12.19 16.4978C12.7411 16.7733 13.216 17.1802 13.5729 17.6825ZM9.84448 14.7907C10.3726 14.1695 10.6715 13.3858 10.6914 12.5707C10.6923 12.4632 10.6819 12.356 10.6604 12.2507C9.75323 12.3393 8.91438 12.7717 8.31588 13.4591C7.78268 14.0556 7.47248 14.8183 7.43798 15.6176C7.43838 15.7148 7.44877 15.8117 7.46898 15.9068C7.54049 15.9203 7.6131 15.9272 7.68588 15.9275C8.10395 15.8942 8.51089 15.7763 8.88197 15.5809C9.25305 15.3855 9.58052 15.1166 9.84448 14.7907Z" fill="black" fill-opacity="0.8"/>
</svg>
