<svg width="46" height="11" viewBox="0 0 46 11" fill="none" xmlns="http://www.w3.org/2000/svg">
<path d="M19.2915 10.8043V3.51843H19.2441L16.2593 10.8043H15.1207L12.1265 3.51843H12.0791V10.8043H10.6788V0.904637H12.4559L15.6602 8.79345H15.7158L18.9134 0.904637H20.6972V10.8043H19.2915ZM28.4383 10.8043H27.0177V9.58341H26.9839C26.5853 10.4479 25.852 10.9343 24.7473 10.9343C23.1763 10.9343 22.2153 9.91268 22.2153 8.25822V3.58618H23.6982V7.96961C23.6982 9.06716 24.22 9.65658 25.2421 9.65658C26.3129 9.65658 26.9581 8.9154 26.9581 7.79075V3.58618H28.441L28.4383 10.8043ZM32.5006 3.4561C34.1814 3.4561 35.2726 4.3897 35.3214 5.72031H33.928C33.8453 5.02113 33.3315 4.58211 32.5006 4.58211C31.6982 4.58211 31.1628 4.9737 31.1628 5.54958C31.1628 6.00215 31.4922 6.31109 32.2743 6.48995L33.4481 6.75688C34.9242 7.0997 35.4868 7.67557 35.4868 8.71892C35.4868 10.036 34.2587 10.9411 32.5562 10.9411C30.7507 10.9411 29.6663 10.0563 29.5294 8.68369H30.9988C31.1357 9.43843 31.6508 9.80834 32.5562 9.80834C33.4481 9.80834 33.9971 9.43843 33.9971 8.84765C33.9971 8.38153 33.7301 8.10646 32.9398 7.9276L31.766 7.65389C30.3929 7.33818 29.7138 6.67965 29.7138 5.62952C29.7138 4.34092 30.8402 3.4561 32.5006 3.4561ZM36.5223 1.68647C36.5128 1.21087 36.891 0.817917 37.3668 0.808432C37.8426 0.798947 38.2357 1.17699 38.2451 1.6526C38.2546 2.1282 37.8765 2.52115 37.4007 2.53064C37.3939 2.53064 37.3871 2.53064 37.3804 2.53064C36.91 2.53335 36.5264 2.15666 36.5223 1.68647ZM36.6389 3.58618H38.1218V10.8029H36.6389V3.58618ZM44.3787 6.0699C44.2282 5.30161 43.6508 4.69051 42.6843 4.69051C41.5376 4.69051 40.784 5.64443 40.784 7.19455C40.784 8.7799 41.5457 9.69859 42.6992 9.69859C43.6115 9.69859 44.2092 9.19724 44.38 8.3612H45.8073C45.6488 9.89777 44.4207 10.9411 42.6843 10.9411C40.6186 10.9411 39.2739 9.52786 39.2739 7.1959C39.2739 4.9046 40.6186 3.45746 42.6708 3.45746C44.5305 3.45746 45.6623 4.65121 45.7938 6.07125L44.3787 6.0699ZM5.97128 1.87075C6.3725 1.39108 6.57176 0.774557 6.52703 0.149902C5.91164 0.208167 5.34234 0.502202 4.93977 0.971032C4.59548 1.36805 4.29185 2.01574 4.37047 2.62549C4.97908 2.67833 5.58768 2.32061 5.97128 1.87075ZM6.5189 2.74337C5.63513 2.69053 4.88284 3.24472 4.46128 3.24472C4.03838 3.24472 3.39181 2.76912 2.69374 2.78267C1.76796 2.8057 0.92485 3.31789 0.477543 4.12818C-0.472645 5.76502 0.22678 8.19318 1.15121 9.52515C1.59988 10.185 2.14071 10.9113 2.85234 10.8842C3.52601 10.8585 3.78897 10.4479 4.60768 10.4479C5.42503 10.4479 5.66223 10.8842 6.37521 10.8707C7.11395 10.8571 7.57617 10.2108 8.02483 9.55089C8.34336 9.08342 8.59142 8.57258 8.76356 8.03329C8.75001 8.01974 7.33896 7.4791 7.3254 5.85581C7.31185 4.49674 8.43418 3.85041 8.48569 3.80976C7.85268 2.87616 6.86319 2.77047 6.5189 2.74337Z" fill="black"/>
</svg>
