<svg width="16" height="44" viewBox="0 0 16 44" fill="none" xmlns="http://www.w3.org/2000/svg">
<path d="M14.798 27.202L10.928 23.332C11.629 22.403 12.05 21.251 12.05 20C12.05 16.94 9.56095 14.45 6.49995 14.45C3.43995 14.45 0.949951 16.94 0.949951 20C0.949951 23.061 3.43995 25.55 6.49995 25.55C7.75095 25.55 8.90295 25.129 9.83195 24.428L13.702 28.298C13.853 28.449 14.052 28.526 14.25 28.526C14.448 28.526 14.646 28.45 14.798 28.298C15.101 27.995 15.101 27.505 14.798 27.202ZM2.04995 20C2.04995 17.546 4.04695 15.55 6.49995 15.55C8.95395 15.55 10.95 17.547 10.95 20C10.95 22.453 8.95395 24.45 6.49995 24.45C4.04595 24.45 2.04995 22.454 2.04995 20Z" fill="black" fill-opacity="0.8"/>
</svg>
