<svg width="15" height="44" viewBox="0 0 15 44" fill="none" xmlns="http://www.w3.org/2000/svg">
<path d="M11.8535 16.0283H10.833C10.7236 15.2173 10.3273 14.4723 9.71582 13.9284C9.10436 13.3845 8.31827 13.0776 7.50003 13.0635C6.68179 13.0776 5.8957 13.3845 5.28424 13.9284C4.67278 14.4723 4.27643 15.2173 4.16703 16.0283H3.14703C2.58582 16.0287 2.04769 16.2517 1.65078 16.6485C1.25387 17.0452 1.03061 17.5833 1.03003 18.1445V25.86C1.03053 26.4211 1.25363 26.9592 1.65038 27.356C2.04712 27.7528 2.58509 27.9761 3.14623 27.9767H11.8532C12.4145 27.9762 12.9526 27.7531 13.3495 27.3562C13.7463 26.9594 13.9695 26.4212 13.97 25.86V18.1445C13.9694 17.5834 13.7463 17.0454 13.3495 16.6487C12.9527 16.2519 12.4147 16.0288 11.8535 16.0283ZM7.50003 14.1631C8.02744 14.1746 8.53515 14.3657 8.93921 14.7048C9.34328 15.044 9.61951 15.5109 9.72223 16.0283H5.27783C5.38055 15.5109 5.65678 15.044 6.06085 14.7048C6.46491 14.3657 6.97262 14.1746 7.50003 14.1631ZM12.87 25.86C12.8697 26.1296 12.7626 26.388 12.572 26.5787C12.3814 26.7694 12.123 26.8767 11.8534 26.8771H3.14653C2.87697 26.8766 2.61859 26.7693 2.42804 26.5787C2.23749 26.388 2.13032 26.1296 2.13003 25.86V18.1445C2.13035 17.875 2.23755 17.6166 2.42814 17.426C2.61872 17.2354 2.87711 17.1282 3.14663 17.1279H11.8536C12.1231 17.1283 12.3815 17.2355 12.572 17.4261C12.7625 17.6167 12.8697 17.875 12.87 18.1445V25.86Z" fill="black" fill-opacity="0.8"/>
</svg>
